<?xml version="1.0" encoding="UTF-8" standalone="no"?>
<!-- Created with Inkscape (http://www.inkscape.org/) -->

<svg
   xmlns:dc="http://purl.org/dc/elements/1.1/"
   xmlns:cc="http://creativecommons.org/ns#"
   xmlns:rdf="http://www.w3.org/1999/02/22-rdf-syntax-ns#"
   xmlns:svg="http://www.w3.org/2000/svg"
   xmlns="http://www.w3.org/2000/svg"
   xmlns:xlink="http://www.w3.org/1999/xlink"
   xmlns:sodipodi="http://sodipodi.sourceforge.net/DTD/sodipodi-0.dtd"
   xmlns:inkscape="http://www.inkscape.org/namespaces/inkscape"
   version="1.1"
   width="16"
   height="16"
   viewBox="0 0 16 16"
   id="Layer_1"
   xml:space="preserve"
   inkscape:version="0.48.5 r10040"
   sodipodi:docname="icon-instagram.svg"><sodipodi:namedview
     pagecolor="#ffffff"
     bordercolor="#666666"
     borderopacity="1"
     objecttolerance="10"
     gridtolerance="10"
     guidetolerance="10"
     inkscape:pageopacity="0"
     inkscape:pageshadow="2"
     inkscape:window-width="1430"
     inkscape:window-height="797"
     id="namedview11"
     showgrid="false"
     inkscape:zoom="14.75"
     inkscape:cx="-4.3389831"
     inkscape:cy="8.1694915"
     inkscape:window-x="0"
     inkscape:window-y="0"
     inkscape:window-maximized="0"
     inkscape:current-layer="Layer_1" /><metadata
     id="metadata17"><rdf:RDF><cc:Work
         rdf:about=""><dc:format>image/svg+xml</dc:format><dc:type
           rdf:resource="http://purl.org/dc/dcmitype/StillImage" /><dc:title /></cc:Work></rdf:RDF></metadata><defs
     id="defs15" /><g
     transform="matrix(0.14135025,0,0,0.14135275,-1.0986221e-6,0)"
     id="g3"
     style="fill:#828282;fill-opacity:1"><defs
       id="defs5"><rect
         width="113.386"
         height="113.386"
         x="0"
         y="0"
         id="SVGID_1_" /></defs><clipPath
       id="SVGID_2_"><use
         id="use9"
         style="overflow:visible"
         x="0"
         y="0"
         width="113.386"
         height="113.386"
         xlink:href="#SVGID_1_" /></clipPath><path
       d="m 100.136,47.884 h -9.854 c 0.718,2.787 1.142,5.699 1.142,8.71 0,19.238 -15.592,34.83 -34.827,34.83 -19.234,0 -34.827,-15.592 -34.827,-34.83 0,-3.011 0.426,-5.923 1.144,-8.71 h -9.855 v 47.893 c 0,2.401 1.95,4.35 4.358,4.35 h 78.361 c 2.408,0 4.358,-1.948 4.358,-4.35 V 47.884 z m 0,-30.473 c 0,-2.403 -1.95,-4.353 -4.358,-4.353 H 82.72 c -2.405,0 -4.354,1.95 -4.354,4.353 v 13.063 c 0,2.403 1.948,4.353 4.354,4.353 h 13.058 c 2.408,0 4.358,-1.95 4.358,-4.353 V 17.411 z m -43.54,17.416 c -12.023,0 -21.768,9.744 -21.768,21.767 0,12.021 9.745,21.77 21.768,21.77 12.023,0 21.77,-9.749 21.77,-21.77 0,-12.023 -9.747,-21.767 -21.77,-21.767 m 43.54,78.365 H 13.058 C 5.847,113.192 0,107.343 0,100.126 V 13.058 C 0,5.846 5.847,0 13.058,0 h 87.078 c 7.212,0 13.058,5.846 13.058,13.058 v 87.068 c -0.001,7.217 -5.846,13.066 -13.058,13.066"
       clip-path="url(#SVGID_2_)"
       id="path11"
       style="fill:#828282;fill-rule:evenodd;fill-opacity:1" /></g></svg>